<svg id="레이어_1" data-name="레이어 1" xmlns="http://www.w3.org/2000/svg" viewBox="0 0 431.08 150"><defs><style>.cls-1{fill:#e62156;}.cls-2,.cls-3{fill:#fff;}.cls-2{fill-rule:evenodd;}.cls-4{fill:#fffefe;}.cls-5{fill:#da3d5f;}.cls-6{fill:#f39a18;}.cls-7{fill:#f5c51e;}.cls-8{fill:#d98b2a;}.cls-9{fill:#1e559e;}.cls-10{fill:#323333;}.cls-11{opacity:0.21;}</style></defs><rect class="cls-1" x="34.81" y="29.91" width="342.53" height="91.85" rx="27.18"/><path class="cls-2" d="M127.65,56.14V64h7.82V99.42h9.75V64h7.38V56.14Zm75.19,16.72h-7.46V56.2h-9.72V99.48h9.72V80.71h7.46V99.48h9.72V56.2h-9.72ZM169,55.68H167.3c-8.78,0-12.29,4.47-12.29,11.75V88.08c0,7.27,3.51,11.92,12.48,11.92h1.69c8.9,0,12-5.35,12-11.4V81.21h-9.53v6.87c0,2.56-.88,4.13-3.39,4.13S165,90.75,165,88V67.37c0-2.74.81-4.13,3.26-4.13s3.39,1.51,3.39,4.13v5h9.53V66.84C181.22,59.63,177.83,55.68,169,55.68Zm64.78,29-2.83-18.1h-1.67l-2.83,18.1Zm3.54-28.51L245,99.42h-8.88L235,92.5h-9.78l-1.08,6.92h-8.89l7.65-43.28Z"/><rect class="cls-3" x="288.51" y="39.97" width="77.28" height="71.96" rx="31.03"/><path class="cls-3" d="M73.32,70.76,91.91,74,87.58,98.63a17.62,17.62,0,0,1-7.53,2.44,30.82,30.82,0,0,1-8.89-.29,26.7,26.7,0,0,1-9.45-3.51,21.4,21.4,0,0,1-7-6.8,26.63,26.63,0,0,1-3.71-9.88,37,37,0,0,1,.26-12.83,32,32,0,0,1,4.6-12.42,25.83,25.83,0,0,1,7.55-7.61,23.7,23.7,0,0,1,9.16-3.48,28.63,28.63,0,0,1,9.38,0,35,35,0,0,1,7.65,2.11A32.41,32.41,0,0,1,95,49.31L92.15,65.42l-8.56-1.51,1.53-8.64-1.19-.53a17.93,17.93,0,0,0-3.37-.91,15.87,15.87,0,0,0-6.11.05,12.16,12.16,0,0,0-5.3,2.55A16.39,16.39,0,0,0,65,61.76a30.15,30.15,0,0,0-2.6,8.37,27.3,27.3,0,0,0-.31,8.13,18,18,0,0,0,2,6.44,13.18,13.18,0,0,0,4,4.48,13.78,13.78,0,0,0,5.57,2.26,14.06,14.06,0,0,0,3.78.19,7.72,7.72,0,0,0,2.46-.53l1.91-10.81L72,78.54Z"/><path class="cls-2" d="M111.64,54.84H110c-8.78,0-12.29,4.48-12.29,11.75V87.24c0,7.27,3.51,11.92,12.48,11.92h1.69c8.91,0,12-5.35,12-11.4V66C123.87,58.79,120.48,54.84,111.64,54.84Zm2.7,25.53v6.87c0,2.56-.88,4.13-3.39,4.13s-3.26-1.46-3.26-4.19V66.53c0-2.74.82-4.13,3.26-4.13s3.39,1.51,3.39,4.13V80.37Z"/><path class="cls-4" d="M258.79,98.35a7.87,7.87,0,0,1,12.89,6.7,7.42,7.42,0,0,1-2.79,5.28,7.94,7.94,0,0,1-11.07-1,7.42,7.42,0,0,1-1.83-5.69A7.54,7.54,0,0,1,258.79,98.35Zm1.5-6.77,9.15.81L277.77,39l-16.2-1.41Z"/><path class="cls-5" d="M353.67,91.45l-18.21,12.17a16.17,16.17,0,0,1-16.63,0L300.62,91.45c-4.59-3.07-4.59-8,0-11.12l18.21-12.18a16.17,16.17,0,0,1,16.63,0l18.21,12.18C358.27,83.4,358.27,88.38,353.67,91.45Z"/><path class="cls-6" d="M317.05,83.31a9.75,9.75,0,0,0-7.5,0l-2.55.93v2.13c0,2.1,2.82,3.81,6.3,3.81s6.3-1.71,6.3-3.81V84.24Z"/><ellipse class="cls-7" cx="313.3" cy="84.24" rx="6.3" ry="3.81"/><path class="cls-6" d="M316.23,80.27a7,7,0,0,0-5.86,0l-2,.69v1.88c0,1.78,2.2,3.21,4.91,3.21s4.91-1.43,4.91-3.21V81.09Z"/><path class="cls-7" d="M318.21,80.84c0,1.78-2.2,3.21-4.91,3.21s-4.91-1.43-4.91-3.21,2.2-3.2,4.91-3.2S318.21,79.07,318.21,80.84Z"/><path class="cls-6" d="M344.75,83.31a9.78,9.78,0,0,0-7.51,0l-2.55.93v2.13c0,2.1,2.82,3.81,6.3,3.81s6.31-1.71,6.31-3.81V84.24Z"/><ellipse class="cls-7" cx="340.99" cy="84.24" rx="6.3" ry="3.81"/><path class="cls-6" d="M343.92,80.27a7,7,0,0,0-5.85,0l-2,.69v1.88c0,1.78,2.2,3.21,4.91,3.21s4.92-1.43,4.92-3.21l0-1.75Z"/><path class="cls-7" d="M345.91,80.84c0,1.78-2.2,3.21-4.92,3.21s-4.91-1.43-4.91-3.21,2.2-3.2,4.91-3.2S345.91,79.07,345.91,80.84Z"/><path class="cls-6" d="M330.9,92.34a9.78,9.78,0,0,0-7.51,0l-2.54.94V95.4c0,2.11,2.82,3.81,6.3,3.81s6.3-1.7,6.3-3.81V93.28Z"/><ellipse class="cls-7" cx="327.15" cy="93.28" rx="6.3" ry="3.81"/><path class="cls-6" d="M330.07,89.3a7.11,7.11,0,0,0-5.85,0l-2,.7v1.88c0,1.77,2.2,3.21,4.92,3.21s4.91-1.44,4.91-3.21V90.13Z"/><path class="cls-7" d="M332.06,89.88c0,1.77-2.2,3.21-4.91,3.21s-4.92-1.44-4.92-3.21,2.2-3.21,4.92-3.21S332.06,88.11,332.06,89.88Z"/><rect class="cls-8" x="324.93" y="57.92" width="4.43" height="23.14" rx="2.22"/><ellipse class="cls-9" cx="327.15" cy="56.96" rx="10.22" ry="10.07"/><path class="cls-10" d="M334.36,46a10.2,10.2,0,0,1,1,.45c.16.09.33.17.49.27l.47.3a4.83,4.83,0,0,1,.45.34,3.75,3.75,0,0,1,.44.35l.43.38.39.41a9.88,9.88,0,0,1,1.36,1.83,9.71,9.71,0,0,1,.53,1c.08.18.15.35.22.53l.11.27.09.27a10.78,10.78,0,0,1,.48,2.24c0,.38.06.76.05,1.14,0,.2,0,.39,0,.57s0,.38-.05.57a9.22,9.22,0,0,1-1.52,4.19c.09-.36.18-.71.26-1.07s.14-.7.19-1.06a13.68,13.68,0,0,0,.14-2.11c0-.35,0-.7-.05-1s-.07-.69-.12-1a27.68,27.68,0,0,0-.21-1l-.12-.5c-.05-.17-.11-.33-.16-.5l-.08-.25-.09-.24-.19-.48a10.08,10.08,0,0,0-.44-.94,5.2,5.2,0,0,0-.25-.46l-.26-.45c-.09-.15-.19-.29-.29-.44l-.14-.22-.16-.21-.31-.42-.34-.41c-.11-.14-.23-.27-.35-.4s-.23-.27-.36-.39A20.66,20.66,0,0,0,334.36,46Z"/><g class="cls-11"><path class="cls-3" d="M334.06,69.26c3.93,2.39,7.8,4.86,11.66,7.36,1.94,1.25,3.86,2.52,5.78,3.77l1.44,1,.18.12.19.13.36.28c.12.09.24.2.35.3a3.31,3.31,0,0,1,.33.32,6,6,0,0,1,.6.72,6,6,0,0,1,.46.82,4.79,4.79,0,0,1,.31.9,5.13,5.13,0,0,1,.11,1,5,5,0,0,1-.11,1,4.88,4.88,0,0,1-.31.91,6,6,0,0,1-.46.82,6.82,6.82,0,0,1-.6.71c-.1.12-.22.22-.33.33l-.35.3-.36.27-.19.13-.18.12-1.44.95c-1.92,1.26-3.84,2.53-5.78,3.77-3.86,2.5-7.73,5-11.66,7.37,3.71-2.72,7.48-5.36,11.26-8,1.89-1.31,3.8-2.6,5.69-3.9l1.43-1,.18-.12.17-.12.32-.25.3-.26a3.83,3.83,0,0,0,.29-.28,3.81,3.81,0,0,0,0-5.55,3.83,3.83,0,0,0-.29-.28l-.3-.26-.32-.25-.17-.11-.18-.12-1.43-1c-1.89-1.3-3.8-2.58-5.69-3.9C341.54,74.61,337.77,72,334.06,69.26Z"/></g></svg>