<svg id="레이어_1" data-name="레이어 1" xmlns="http://www.w3.org/2000/svg" viewBox="0 0 342.53 91.85"><defs><style>.cls-1{fill:#e62156;}.cls-2,.cls-3{fill:#fff;}.cls-2{fill-rule:evenodd;}.cls-4{fill:#fffefe;}.cls-5{fill:#da3d5f;}.cls-6{fill:#f39a18;}.cls-7{fill:#f5c51e;}.cls-8{fill:#d98b2a;}.cls-9{fill:#1e559e;}.cls-10{fill:#323333;}.cls-11{opacity:0.21;}</style></defs><rect class="cls-1" width="342.53" height="91.85" rx="27.18"/><path class="cls-2" d="M92.84,26.23v7.86h7.82V69.51h9.75V34.09h7.38V26.23ZM168,43h-7.46V26.29h-9.72V69.57h9.72V50.81H168V69.57h9.72V26.29H168ZM134.18,25.77h-1.69c-8.78,0-12.29,4.48-12.29,11.75V58.17c0,7.27,3.51,11.92,12.48,11.92h1.69c8.9,0,12-5.35,12-11.4V51.3h-9.53v6.87c0,2.56-.88,4.13-3.39,4.13s-3.26-1.46-3.26-4.19V37.46c0-2.74.81-4.13,3.26-4.13s3.39,1.51,3.39,4.13v5h9.53V36.94C146.41,29.72,143,25.77,134.18,25.77Zm64.78,29-2.83-18.09h-1.67l-2.83,18.09Zm3.54-28.51,7.65,43.28h-8.88l-1.08-6.92h-9.78l-1.08,6.92h-8.89l7.65-43.28Z"/><rect class="cls-3" x="253.7" y="10.06" width="77.28" height="71.96" rx="31.03"/><path class="cls-3" d="M38.51,40.85,57.1,44.13,52.77,68.72a17.62,17.62,0,0,1-7.53,2.44,31.25,31.25,0,0,1-8.9-.28,26.93,26.93,0,0,1-9.44-3.52A21.4,21.4,0,0,1,20,60.56a26.63,26.63,0,0,1-3.71-9.88,37,37,0,0,1,.26-12.83,32.24,32.24,0,0,1,4.59-12.42,26,26,0,0,1,7.56-7.61,23.64,23.64,0,0,1,9.16-3.48,28.63,28.63,0,0,1,9.38.05,35,35,0,0,1,7.65,2.11,31.7,31.7,0,0,1,5.34,2.91l-2.84,16.1L48.78,34l1.53-8.63-1.19-.53a18.13,18.13,0,0,0-3.37-.92,16.06,16.06,0,0,0-6.11,0,12.27,12.27,0,0,0-5.3,2.55,16.39,16.39,0,0,0-4.11,5.33,30.15,30.15,0,0,0-2.6,8.37,27.32,27.32,0,0,0-.31,8.13,18.16,18.16,0,0,0,2,6.45,13.14,13.14,0,0,0,4,4.47,13.78,13.78,0,0,0,5.57,2.26,14.06,14.06,0,0,0,3.78.19,7.72,7.72,0,0,0,2.46-.53L47,50.38l-9.88-1.75Z"/><path class="cls-2" d="M76.83,24.93H75.14c-8.78,0-12.29,4.48-12.29,11.75V57.33c0,7.27,3.51,11.92,12.48,11.92H77c8.9,0,12-5.35,12-11.4V36.1C89.06,28.88,85.67,24.93,76.83,24.93Zm2.7,25.53v6.87c0,2.56-.88,4.13-3.39,4.13S72.88,60,72.88,57.27V36.62c0-2.73.82-4.13,3.26-4.13s3.39,1.51,3.39,4.13V50.46Z"/><path class="cls-4" d="M224,68.44a7.88,7.88,0,0,1,12.9,6.7,7.46,7.46,0,0,1-2.79,5.29,8,8,0,0,1-11.07-1,7.42,7.42,0,0,1-1.83-5.69A7.57,7.57,0,0,1,224,68.44Zm1.51-6.76,9.15.8L243,9.07l-16.2-1.42Z"/><path class="cls-5" d="M318.86,61.54,300.65,73.71a16.17,16.17,0,0,1-16.63,0L265.81,61.54c-4.59-3.07-4.59-8,0-11.12L284,38.24a16.17,16.17,0,0,1,16.63,0l18.21,12.18C323.45,53.49,323.45,58.47,318.86,61.54Z"/><path class="cls-6" d="M282.24,53.4a9.75,9.75,0,0,0-7.5,0l-2.55.93v2.13c0,2.1,2.82,3.81,6.3,3.81s6.3-1.71,6.3-3.81V54.33Z"/><ellipse class="cls-7" cx="278.49" cy="54.33" rx="6.3" ry="3.81"/><path class="cls-6" d="M281.42,50.36a7.13,7.13,0,0,0-5.86,0l-2,.69v1.88c0,1.78,2.2,3.21,4.91,3.21s4.91-1.43,4.91-3.21V51.18Z"/><path class="cls-7" d="M283.4,50.94c0,1.77-2.2,3.2-4.91,3.2s-4.91-1.43-4.91-3.2,2.2-3.21,4.91-3.21S283.4,49.16,283.4,50.94Z"/><path class="cls-6" d="M309.94,53.4a9.78,9.78,0,0,0-7.51,0l-2.55.93v2.13c0,2.1,2.82,3.81,6.3,3.81s6.3-1.71,6.3-3.81V54.33Z"/><ellipse class="cls-7" cx="306.18" cy="54.33" rx="6.3" ry="3.81"/><path class="cls-6" d="M309.11,50.36a7.11,7.11,0,0,0-5.85,0l-2,.69v1.88c0,1.78,2.2,3.21,4.91,3.21s4.92-1.43,4.92-3.21l0-1.75Z"/><path class="cls-7" d="M311.1,50.94c0,1.77-2.2,3.2-4.92,3.2s-4.91-1.43-4.91-3.2,2.2-3.21,4.91-3.21S311.1,49.16,311.1,50.94Z"/><path class="cls-6" d="M296.09,62.43a9.9,9.9,0,0,0-7.51,0l-2.55.94v2.12c0,2.11,2.83,3.81,6.31,3.81s6.3-1.7,6.3-3.81V63.37Z"/><ellipse class="cls-7" cx="292.34" cy="63.37" rx="6.3" ry="3.81"/><path class="cls-6" d="M295.26,59.39a7.11,7.11,0,0,0-5.85,0l-2,.7V62c0,1.77,2.2,3.21,4.92,3.21s4.91-1.44,4.91-3.21V60.22Z"/><path class="cls-7" d="M297.25,60c0,1.77-2.2,3.21-4.91,3.21s-4.92-1.44-4.92-3.21,2.2-3.21,4.92-3.21S297.25,58.2,297.25,60Z"/><rect class="cls-8" x="290.12" y="28.01" width="4.43" height="23.14" rx="2.22"/><ellipse class="cls-9" cx="292.34" cy="27.05" rx="10.22" ry="10.07"/><path class="cls-10" d="M299.55,16.07a10.2,10.2,0,0,1,1,.45c.16.09.33.17.49.27l.47.3c.16.1.3.23.45.34a4.82,4.82,0,0,1,.44.35l.42.38.4.41a9.88,9.88,0,0,1,1.36,1.83,9.71,9.71,0,0,1,.53,1c.08.18.15.36.22.53l.11.27.09.27a10.92,10.92,0,0,1,.48,2.24c0,.38.06.76.05,1.15,0,.19,0,.38,0,.57s0,.37-.05.56a9.22,9.22,0,0,1-1.52,4.19c.09-.36.18-.71.26-1.07s.14-.7.18-1.06a13.61,13.61,0,0,0,.15-2.11c0-.35,0-.7-.05-1.05s-.07-.69-.12-1c0-.17-.07-.34-.1-.51a4.64,4.64,0,0,0-.11-.51l-.12-.5c-.05-.17-.11-.33-.16-.5l-.08-.24-.09-.25-.19-.48c-.14-.31-.27-.64-.44-.94a5.2,5.2,0,0,0-.25-.46l-.26-.45c-.09-.15-.19-.29-.29-.44l-.14-.22-.16-.21-.31-.42-.34-.41c-.11-.14-.23-.27-.35-.4s-.23-.27-.36-.39C300.66,17,300.11,16.55,299.55,16.07Z"/><g class="cls-11"><path class="cls-3" d="M299.25,39.35c3.92,2.39,7.8,4.87,11.66,7.36,1.94,1.25,3.85,2.52,5.78,3.77l1.44,1,.18.12.19.14.36.27c.12.09.24.2.35.3a3.31,3.31,0,0,1,.33.32,5.79,5.79,0,0,1,.59.72,5.12,5.12,0,0,1,.47.82,4.79,4.79,0,0,1,.31.9,5.23,5.23,0,0,1,.11,1,5,5,0,0,1-.11,1,4.65,4.65,0,0,1-.31.91,6,6,0,0,1-.46.82,6.94,6.94,0,0,1-.6.72c-.1.11-.22.21-.33.32l-.35.3-.36.27-.19.13-.18.12-1.44.95c-1.93,1.26-3.84,2.53-5.78,3.77-3.86,2.5-7.73,5-11.66,7.37,3.71-2.72,7.48-5.36,11.26-8,1.89-1.31,3.8-2.6,5.69-3.9l1.43-1,.18-.12.17-.12.32-.24.3-.27a3.83,3.83,0,0,0,.29-.28,4,4,0,0,0,1.2-2.77,4.07,4.07,0,0,0-1.2-2.78c-.09-.1-.19-.18-.29-.28l-.3-.26-.32-.25-.17-.11-.18-.12-1.43-1c-1.89-1.3-3.8-2.58-5.69-3.9C306.73,44.7,303,42.06,299.25,39.35Z"/></g></svg>