<svg id="레이어_1" data-name="레이어 1" xmlns="http://www.w3.org/2000/svg" viewBox="0 0 216.2 82.1"><defs><style>.cls-1,.cls-2{fill:#5a5a5a;}.cls-1{fill-rule:evenodd;}</style></defs><path class="cls-1" d="M85.3,23.3v7.9h7.8V66.6h9.8V31.2h7.4V23.3ZM160.5,40H153V23.4h-9.7V66.7H153V47.9h7.5V66.7h9.7V23.4h-9.7ZM126.7,22.9H125c-8.8,0-12.3,4.5-12.3,11.7V55.3c0,7.3,3.5,11.9,12.5,11.9h1.7c8.9,0,12-5.4,12-11.4V48.4h-9.5v6.9c0,2.6-.9,4.1-3.4,4.1s-3.3-1.5-3.3-4.2V34.5c0-2.7.8-4.1,3.3-4.1s3.4,1.5,3.4,4.1v5h9.5V34C138.9,26.8,135.5,22.9,126.7,22.9Zm64.8,28.9-2.8-18.1H187l-2.8,18.1ZM195,23.3l7.6,43.3h-8.9l-1.1-6.9h-9.8l-1.1,6.9h-8.9l7.6-43.3Z"/><path class="cls-2" d="M31,37.93,49.6,41.21,45.27,65.79a17.49,17.49,0,0,1-7.53,2.45,30.89,30.89,0,0,1-8.9-.29,26.85,26.85,0,0,1-9.45-3.51,21.36,21.36,0,0,1-6.94-6.8,26.48,26.48,0,0,1-3.71-9.87A37,37,0,0,1,9,34.94a32.17,32.17,0,0,1,4.6-12.43,26,26,0,0,1,7.56-7.61,23.59,23.59,0,0,1,9.15-3.48,28.62,28.62,0,0,1,9.38.05,35,35,0,0,1,7.65,2.11,32,32,0,0,1,5.34,2.9L49.83,32.59l-8.55-1.51,1.52-8.64-1.19-.53A17.73,17.73,0,0,0,38.24,21a15.81,15.81,0,0,0-6.1.05,12.19,12.19,0,0,0-5.31,2.55,16.39,16.39,0,0,0-4.11,5.33,30.17,30.17,0,0,0-2.59,8.37,27,27,0,0,0-.31,8.13,17.84,17.84,0,0,0,2,6.44,13.05,13.05,0,0,0,4,4.48,13.82,13.82,0,0,0,5.58,2.26,14.06,14.06,0,0,0,3.78.19,7.72,7.72,0,0,0,2.46-.53l1.9-10.81-9.88-1.75Z"/><path class="cls-1" d="M69.3,22H67.6c-8.8,0-12.3,4.5-12.3,11.8V54.5c0,7.3,3.5,11.9,12.5,11.9h1.7c8.9,0,12-5.3,12-11.4V33.2C81.6,26,78.2,22,69.3,22ZM72,47.5v6.9c0,2.6-.9,4.1-3.4,4.1s-3.3-1.5-3.3-4.2V33.7c0-2.7.8-4.1,3.3-4.1S72,31.1,72,33.7Z"/></svg>